<svg xmlns="http://www.w3.org/2000/svg" width="368" height="409.943" viewBox="0 0 368 409.943">
  <g id="Group_22" data-name="Group 22" transform="translate(-1518 -20.057)">
    <g id="Group_21" data-name="Group 21" transform="translate(-5 -12)">
      <path id="Path_23" data-name="Path 23" d="M1548.831,211.945s67.6-.293,94.537,0c4.221.4-73.659,152.127-71.078,149.429,30.848,15.482,91.993,2.966,126.792-47.5,31.71-45.988,28.224-141.752-48.324-168.313-26.1-10.361-84.8-22.5-130.662,19.47-46.91,48.276-45.626,92.543-22.168,140.75" transform="translate(114 -86)" fill="none" stroke="#b1b3c0" stroke-linecap="round" stroke-width="35"/>
      <path id="Path_24" data-name="Path 24" d="M1396.51,610.769c9.091-13.613,39.792-37.174,49.713-44.321,8.751-7.43-.679,44.406-3.049,46.448S1388.865,620.581,1396.51,610.769Z" transform="matrix(0.978, 0.208, -0.208, 0.978, 344.977, -648.903)" fill="#b1b3c0" stroke="#b1b3c0" stroke-width="1"/>
    </g>
    <text id="SUSTAINABLE" transform="translate(1518 366)" fill="#706f6f" font-size="52" font-family="SegoeUI, Segoe UI" letter-spacing="0.1em"><tspan x="0" y="0">SUSTAINABLE</tspan></text>
    <text id="SEVEN" transform="translate(1608 416)" fill="#b1b3c0" font-size="54" font-family="SegoeUI-Bold, Segoe UI" font-weight="700" letter-spacing="0.1em"><tspan x="0" y="0">SEVEN</tspan></text>
  </g>
</svg>
